<svg id="Layer_1" data-name="Layer 1" xmlns="http://www.w3.org/2000/svg" viewBox="0 0 98.12 52.5"><defs><style>.cls-1{fill:#e30613;}</style></defs><title>icono_</title><path class="cls-1" d="M76.07,21.81V30.7H22.18V21.81Z"/><path class="cls-1" d="M76.67,26.26V3.93C76.67.7,77.35,0,80.56,0c.58,0,1.15,0,1.72,0,2.37,0,3.19.85,3.25,3.26,0,2.22,0,4.44,0,6.66q0,19.21,0,38.44c0,1.51.23,3.48-1.57,3.79a15.87,15.87,0,0,1-6.2-.39c-.57-.13-1-1.93-1-3C76.63,41.29,76.67,33.78,76.67,26.26Z"/><path class="cls-1" d="M21.41,26.25q0,11.37,0,22.75c0,2.7-.77,3.46-3.41,3.49-5.21.06-5.41-.14-5.41-5.4q0-21.36,0-42.72C12.6.5,13.09,0,16.89,0H18c2.7,0,3.42.69,3.43,3.47C21.44,11.08,21.41,18.66,21.41,26.25Z"/><path class="cls-1" d="M12.08,26.47c0,5.15,0,10.3,0,15.44,0,3.4-.72,4.08-4.18,4.09H7.47c-3.59,0-4.26-.66-4.26-4.21q0-13.29,0-26.59c0-1.86,0-3.72,0-5.58,0-2.08,1-3,3-3.11,5.44-.27,5.89.15,5.89,5.59Z"/><path class="cls-1" d="M94.89,26.33V42.42c0,2.76-.81,3.55-3.57,3.57H89.6c-2.68,0-3.54-.88-3.55-3.63q0-9.21,0-18.44c0-4.65,0-9.3,0-13.95,0-2.6.85-3.4,3.49-3.45.78,0,1.57,0,2.35,0,2.1.1,2.95,1,3,3.08,0,5.58,0,11.16,0,16.73Z"/><path class="cls-1" d="M2.51,30.74C.57,30.65.08,29.52,0,27.89c-.14-5.26-.06-5.51,2.47-6.1Z"/><path class="cls-1" d="M95.51,21.7c3.06.45,2.6,2.62,2.57,4.44s.64,4.16-2.57,4.67V21.7Z"/></svg>