<svg id="Layer_1" data-name="Layer 1" xmlns="http://www.w3.org/2000/svg" viewBox="0 0 99.82 58.98"><defs><style>.cls-1{fill:#e30613;}</style></defs><title>icono_</title><path class="cls-1" d="M0,46c.26-10.34,9.47-16.3,18.26-12.64,3.66,1.52,6.51,3.86,7.73,7.78.42,1.36,1,1.91,2.59,1.63,4.09-.76,8.21-1.29,12.31-2,6.4-1.08,12.67-.14,18.93,1.1.82.16,1.64.27,2.47.37,1.65.21,3.51,1,4.88.43,1.12-.43,1.66-2.38,2.41-3.68,2.72-4.65,8.2-7.46,13.18-6.73,6,.89,10,4.42,11.5,10.15a13.5,13.5,0,0,1-5.15,14.07c-6.89,5.1-17,2.09-20.34-6.16-.67-1.69-1.47-2.22-3.14-1.91-2.9.52-5.83.88-8.72,1.46-7.81,1.55-15.52.9-23.22-.73-1.55-.33-3.14-.44-4.7-.73s-2.46.23-3.13,1.91A13.39,13.39,0,0,1,4,55.16,12.7,12.7,0,0,1,0,46Zm4.57,3.83C4.32,44.76,5.85,41,10.22,39s8.29-.71,12.08,2.57c-2.8-5.83-8.12-7.63-13.44-4.93C4.41,38.89,1.49,44.74,4.57,49.82Zm85.49-8.9a9,9,0,0,0-7.65-5.3c-4.41-.41-7.63,1.57-9.74,5.3a8.28,8.28,0,0,0,0,8.7c-.36-4.72,1.36-8.44,5.55-10.56S86.41,38,90.06,40.92Z"/><path class="cls-1" d="M95.08,39.16c-3.73-7.08-9.83-9.53-17.55-8.47.08-3.79,2.51-6.91,6.58-8.18,4.92-1.54,8.69.43,11.71,4.4,0-2.25-2-5.06-4.56-6.42A10.17,10.17,0,0,0,76.5,28.71c-.16,2.65-.16,2.65-3.08,3.69l-.69-3.64A42.28,42.28,0,0,0,66.45,28a59.11,59.11,0,0,1-29.6-7.46c-.39-.21-.83-.35-1.24-.53-1.92-.88-3.09-.63-4.58,1.34a12.81,12.81,0,0,1-13,5.21c-5.57-1-9.09-4.53-10.6-10S7.7,6.73,11.66,3.27A12.7,12.7,0,0,1,25.49,1.15a12.43,12.43,0,0,1,8.09,11.37c.08,1.39.56,1.9,1.85,2,3.25.18,6.5.5,9.75.59a49.48,49.48,0,0,1,20.91,5.49c.88.44,1.76.9,2.67,1.25,1.55.6,3.22,1.72,4.67,1.5,1.16-.18,2.09-2,3.09-3.13,4.81-5.35,14.07-5.58,19.21-.47A13.28,13.28,0,0,1,95.63,39,1.77,1.77,0,0,1,95.08,39.16ZM30,11.65c-.68-3.95-3.64-7.17-6.77-7.83-4.63-1-8.77.51-11.22,4.05-2,2.9-2.47,6-1,8.19.13-5,2.56-8.13,7.14-9.48C23.12,5.12,26.81,7.27,30,11.65Z"/></svg>