<svg id="Layer_1" data-name="Layer 1" xmlns="http://www.w3.org/2000/svg" viewBox="0 0 103.09 73.02"><defs><style>.cls-1{fill:#e30613;}</style></defs><title>icono_</title><path class="cls-1" d="M103.09,72.86a33.17,33.17,0,0,1-5.94-1.27,16.71,16.71,0,0,0-13.92.07,13.67,13.67,0,0,1-11.72.06,16.24,16.24,0,0,0-14.11,0,13.47,13.47,0,0,1-11.71,0,16.05,16.05,0,0,0-13.9-.05,14.18,14.18,0,0,1-12.14,0,16,16,0,0,0-13.27-.1c-2,.81-4.24.94-6.38,1.38V63.7a64,64,0,0,0,6.8-1.77C10.92,60.37,15,60.11,19,62a15.42,15.42,0,0,0,13.64,0,13.94,13.94,0,0,1,12,0,15.66,15.66,0,0,0,13.86,0,14.09,14.09,0,0,1,12.18.1,15,15,0,0,0,13.21,0,15.79,15.79,0,0,1,12.86,0,47.87,47.87,0,0,0,6.36,1.66Z"/><path class="cls-1" d="M17.16,52.91l35.66-19.5c-3.15-5.62-6.2-11.11-9.29-16.59-2.8-5-.65-9.47,5-10.47Q65.93,3.26,83.33.1A7,7,0,0,1,91.09,5a6.53,6.53,0,0,1-4.54,8.29c-4.64,1.15-9.39,1.88-14.1,2.78l-10.85,2c6.78,12.19,13.46,24.19,20.23,36.34a11.51,11.51,0,0,1-9.66-.08,17.32,17.32,0,0,0-15.39,0,12.51,12.51,0,0,1-10.66-.11,17,17,0,0,0-15,0C26.38,56.5,21.78,55.19,17.16,52.91Z"/><path class="cls-1" d="M76,34.1A11.83,11.83,0,0,1,88.08,22,12,12,0,0,1,100.35,34,12.23,12.23,0,0,1,88.1,46.2C81,46.14,76,41.09,76,34.1Z"/></svg>